P3 70 70 255
126 13 236 0 0 0 0 0 0 0 0 0 0 0 0 0 0 0 0 0 0 0 0 0 0 0 0 0 0 0 0 0 0 0 0 0 0 0 0 0 0 0 0 0 0 0 0 0 0 0 0 0 0 0 0 0 0 0 0 0 0 0 0 0 0 0 0 0 0 0 0 0 0 0 0 0 0 0 0 0 0 0 0 0 0 0 0 0 0 0 0 0 0 0 0 0 0 0 0 0 0 0 0 0 0 0 0 0 0 0 0 0 0 0 0 0 0 0 0 0 0 0 0 0 0 0 0 0 0 0 0 0 0 0 0 0 0 0 0 0 0 0 0 0 0 0 0 0 0 0 0 0 0 0 0 0 0 0 0 0 0 0 0 0 0 0 0 0 0 0 0 0 0 0 0 0 0 0 0 0 0 0 0 0 0 0 0 0 0 0 0 0 0 0 0 0 0 0 0 0 0 0 0 0 0 0 0 0 0 0 
0 0 0 128 16 236 0 0 0 0 0 0 0 0 0 0 0 0 0 0 0 0 0 0 0 0 0 0 0 0 0 0 0 0 0 0 0 0 0 0 0 0 0 0 0 0 0 0 0 0 0 0 0 0 0 0 0 0 0 0 0 0 0 0 0 0 0 0 0 0 0 0 0 0 0 0 0 0 0 0 0 0 0 0 0 0 0 0 0 0 0 0 0 0 0 0 0 0 0 0 0 0 0 0 0 0 0 0 0 0 0 0 0 0 0 0 0 0 0 0 0 0 0 0 0 0 0 0 0 0 0 0 0 0 0 0 0 0 0 0 0 0 0 0 0 0 0 0 0 0 0 0 0 0 0 0 0 0 0 0 0 0 0 0 0 0 0 0 0 0 0 0 0 0 0 0 0 0 0 0 0 0 0 0 0 0 0 0 0 0 0 0 0 0 0 0 0 0 0 0 0 0 0 0 0 0 0 0 0 0 
0 0 0 0 0 0 130 19 236 0 0 0 0 0 0 0 0 0 0 0 0 0 0 0 0 0 0 0 0 0 0 0 0 0 0 0 0 0 0 0 0 0 0 0 0 0 0 0 0 0 0 0 0 0 0 0 0 0 0 0 0 0 0 0 0 0 0 0 0 0 0 0 0 0 0 0 0 0 0 0 0 0 0 0 0 0 0 0 0 0 0 0 0 0 0 0 0 0 0 0 0 0 0 0 0 0 0 0 0 0 0 0 0 0 0 0 0 0 0 0 0 0 0 0 0 0 0 0 0 0 0 0 0 0 0 0 0 0 0 0 0 0 0 0 0 0 0 0 0 0 0 0 0 0 0 0 0 0 0 0 0 0 0 0 0 0 0 0 0 0 0 0 0 0 0 0 0 0 0 0 0 0 0 0 0 0 0 0 0 0 0 0 0 0 0 0 0 0 0 0 0 0 0 0 0 0 0 0 0 0 
0 0 0 0 0 0 0 0 0 131 22 236 0 0 0 0 0 0 0 0 0 0 0 0 0 0 0 0 0 0 0 0 0 0 0 0 0 0 0 0 0 0 0 0 0 0 0 0 0 0 0 0 0 0 0 0 0 0 0 0 0 0 0 0 0 0 0 0 0 0 0 0 0 0 0 0 0 0 0 0 0 0 0 0 0 0 0 0 0 0 0 0 0 0 0 0 0 0 0 0 0 0 0 0 0 0 0 0 0 0 0 0 0 0 0 0 0 0 0 0 0 0 0 0 0 0 0 0 0 0 0 0 0 0 0 0 0 0 0 0 0 0 0 0 0 0 0 0 0 0 0 0 0 0 0 0 0 0 0 0 0 0 0 0 0 0 0 0 0 0 0 0 0 0 0 0 0 0 0 0 0 0 0 0 0 0 0 0 0 0 0 0 0 0 0 0 0 0 0 0 0 0 0 0 0 0 0 0 0 0 
0 0 0 0 0 0 0 0 0 0 0 0 133 25 237 0 0 0 0 0 0 0 0 0 0 0 0 0 0 0 0 0 0 0 0 0 0 0 0 0 0 0 0 0 0 0 0 0 0 0 0 0 0 0 0 0 0 0 0 0 0 0 0 0 0 0 0 0 0 0 0 0 0 0 0 0 0 0 0 0 0 0 0 0 0 0 0 0 0 0 0 0 0 0 0 0 0 0 0 0 0 0 0 0 0 0 0 0 0 0 0 0 0 0 0 0 0 0 0 0 0 0 0 0 0 0 0 0 0 0 0 0 0 0 0 0 0 0 0 0 0 0 0 0 0 0 0 0 0 0 0 0 0 0 0 0 0 0 0 0 0 0 0 0 0 0 0 0 0 0 0 0 0 0 0 0 0 0 0 0 0 0 0 0 0 0 0 0 0 0 0 0 0 0 0 0 0 0 0 0 0 0 0 0 0 0 0 0 0 0 
0 0 0 0 0 0 0 0 0 0 0 0 0 0 0 135 29 237 0 0 0 0 0 0 0 0 0 0 0 0 0 0 0 0 0 0 0 0 0 0 0 0 0 0 0 0 0 0 0 0 0 0 0 0 0 0 0 0 0 0 0 0 0 0 0 0 0 0 0 0 0 0 0 0 0 0 0 0 0 0 0 0 0 0 0 0 0 0 0 0 0 0 0 0 0 0 0 0 0 0 0 0 0 0 0 0 0 0 0 0 0 0 0 0 0 0 0 0 0 0 0 0 0 0 0 0 0 0 0 0 0 0 0 0 0 0 0 0 0 0 0 0 0 0 0 0 0 0 0 0 0 0 0 0 0 0 0 0 0 0 0 0 0 0 0 0 0 0 0 0 0 0 0 0 0 0 0 0 0 0 0 0 0 0 0 0 0 0 0 0 0 0 0 0 0 0 0 0 0 0 0 0 0 0 0 0 0 0 0 0 
0 0 0 0 0 0 0 0 0 0 0 0 0 0 0 0 0 0 136 32 237 0 0 0 0 0 0 0 0 0 0 0 0 0 0 0 0 0 0 0 0 0 0 0 0 0 0 0 0 0 0 0 0 0 0 0 0 0 0 0 0 0 0 0 0 0 0 0 0 0 0 0 0 0 0 0 0 0 0 0 0 0 0 0 0 0 0 0 0 0 0 0 0 0 0 0 0 0 0 0 0 0 0 0 0 0 0 0 0 0 0 0 0 0 0 0 0 0 0 0 0 0 0 0 0 0 0 0 0 0 0 0 0 0 0 0 0 0 0 0 0 0 0 0 0 0 0 0 0 0 0 0 0 0 0 0 0 0 0 0 0 0 0 0 0 0 0 0 0 0 0 0 0 0 0 0 0 0 0 0 0 0 0 0 0 0 0 0 0 0 0 0 0 0 0 0 0 0 0 0 0 0 0 0 0 0 0 0 0 0 
0 0 0 0 0 0 0 0 0 0 0 0 0 0 0 0 0 0 0 0 0 138 35 237 0 0 0 0 0 0 0 0 0 0 0 0 0 0 0 0 0 0 0 0 0 0 0 0 0 0 0 0 0 0 0 0 0 0 0 0 0 0 0 0 0 0 0 0 0 0 0 0 0 0 0 0 0 0 0 0 0 0 0 0 0 0 0 0 0 0 0 0 0 0 0 0 0 0 0 0 0 0 0 0 0 0 0 0 0 0 0 0 0 0 0 0 0 0 0 0 0 0 0 0 0 0 0 0 0 0 0 0 0 0 0 0 0 0 0 0 0 0 0 0 0 0 0 0 0 0 0 0 0 0 0 0 0 0 0 0 0 0 0 0 0 0 0 0 0 0 0 0 0 0 0 0 0 0 0 0 0 0 0 0 0 0 0 0 0 0 0 0 0 0 0 0 0 0 0 0 0 0 0 0 0 0 0 0 0 0 
0 0 0 0 0 0 0 0 0 0 0 0 0 0 0 0 0 0 0 0 0 0 0 0 140 38 238 0 0 0 0 0 0 0 0 0 0 0 0 0 0 0 0 0 0 0 0 0 0 0 0 0 0 0 0 0 0 0 0 0 0 0 0 0 0 0 0 0 0 0 0 0 0 0 0 0 0 0 0 0 0 0 0 0 0 0 0 0 0 0 0 0 0 0 0 0 0 0 0 0 0 0 0 0 0 0 0 0 0 0 0 0 0 0 0 0 0 0 0 0 0 0 0 0 0 0 0 0 0 0 0 0 0 0 0 0 0 0 0 0 0 0 0 0 0 0 0 0 0 0 0 0 0 0 0 0 0 0 0 0 0 0 0 0 0 0 0 0 0 0 0 0 0 0 0 0 0 0 0 0 0 0 0 0 0 0 0 0 0 0 0 0 0 0 0 0 0 0 0 0 0 0 0 0 0 0 0 0 0 0 
0 0 0 0 0 0 0 0 0 0 0 0 0 0 0 0 0 0 0 0 0 0 0 0 0 0 0 141 41 238 0 0 0 0 0 0 0 0 0 0 0 0 0 0 0 0 0 0 0 0 0 0 0 0 0 0 0 0 0 0 0 0 0 0 0 0 0 0 0 0 0 0 0 0 0 0 0 0 0 0 0 0 0 0 0 0 0 0 0 0 0 0 0 0 0 0 0 0 0 0 0 0 0 0 0 0 0 0 0 0 0 0 0 0 0 0 0 0 0 0 0 0 0 0 0 0 0 0 0 0 0 0 0 0 0 0 0 0 0 0 0 0 0 0 0 0 0 0 0 0 0 0 0 0 0 0 0 0 0 0 0 0 0 0 0 0 0 0 0 0 0 0 0 0 0 0 0 0 0 0 0 0 0 0 0 0 0 0 0 0 0 0 0 0 0 0 0 0 0 0 0 0 0 0 0 0 0 0 0 0 
0 0 0 0 0 0 0 0 0 0 0 0 0 0 0 0 0 0 0 0 0 0 0 0 0 0 0 0 0 0 145 48 238 0 0 0 0 0 0 0 0 0 0 0 0 0 0 0 0 0 0 0 0 0 0 0 0 0 0 0 0 0 0 0 0 0 0 0 0 0 0 0 0 0 0 0 0 0 0 0 0 0 0 0 0 0 0 0 0 0 0 0 0 0 0 0 0 0 0 0 0 0 0 0 0 0 0 0 0 0 0 0 0 0 0 0 0 0 0 0 0 0 0 0 0 0 0 0 0 0 0 0 0 0 0 0 0 0 0 0 0 0 0 0 0 0 0 0 0 0 0 0 0 0 0 0 0 0 0 0 0 0 0 0 0 0 0 0 0 0 0 0 0 0 0 0 0 0 0 0 0 0 0 0 0 0 0 0 0 0 0 0 0 0 0 0 0 0 0 0 0 0 0 0 0 0 0 0 0 0 
0 0 0 0 0 0 0 0 0 0 0 0 0 0 0 0 0 0 0 0 0 0 0 0 0 0 0 0 0 0 0 0 0 146 51 239 0 0 0 0 0 0 0 0 0 0 0 0 0 0 0 0 0 0 0 0 0 0 0 0 0 0 0 0 0 0 0 0 0 0 0 0 0 0 0 0 0 0 0 0 0 0 0 0 0 0 0 0 0 0 0 0 0 0 0 0 0 0 0 0 0 0 0 0 0 0 0 0 0 0 0 0 0 0 0 0 0 0 0 0 0 0 0 0 0 0 0 0 0 0 0 0 0 0 0 0 0 0 0 0 0 0 0 0 0 0 0 0 0 0 0 0 0 0 0 0 0 0 0 0 0 0 0 0 0 0 0 0 0 0 0 0 0 0 0 0 0 0 0 0 0 0 0 0 0 0 0 0 0 0 0 0 0 0 0 0 0 0 12 0 242 8 0 246 4 0 250 0 0 255 
0 0 0 0 0 0 0 0 0 0 0 0 0 0 0 0 0 0 0 0 0 0 0 0 0 0 0 0 0 0 0 0 0 0 0 0 148 54 239 0 0 0 0 0 0 0 0 0 0 0 0 0 0 0 0 0 0 0 0 0 0 0 0 0 0 0 0 0 0 0 0 0 0 0 0 0 0 0 0 0 0 0 0 0 0 0 0 0 0 0 0 0 0 0 0 0 0 0 0 0 0 0 0 0 0 0 0 0 0 0 0 0 0 0 0 0 0 0 0 0 0 0 0 0 0 0 0 0 0 0 0 0 0 0 0 0 0 0 0 0 0 0 0 0 0 0 0 0 0 0 0 0 0 0 0 0 0 0 0 0 0 0 0 0 0 0 0 0 0 0 0 0 0 0 0 0 0 0 0 0 0 0 0 0 0 0 0 0 0 24 0 230 20 0 234 16 0 238 12 4 238 4 4 246 0 8 246 0 0 0 
0 0 0 0 0 0 0 0 0 0 0 0 0 0 0 0 0 0 0 0 0 0 0 0 0 0 0 0 0 0 0 0 0 0 0 0 0 0 0 150 57 239 0 0 0 0 0 0 0 0 0 0 0 0 0 0 0 0 0 0 0 0 0 0 0 0 0 0 0 0 0 0 0 0 0 0 0 0 0 0 0 0 0 0 0 0 0 0 0 0 0 0 0 0 0 0 0 0 0 0 0 0 0 0 0 0 0 0 0 0 0 0 0 0 0 0 0 0 0 0 0 0 0 0 0 0 0 0 0 0 0 0 0 0 0 0 0 0 0 0 0 0 0 0 0 0 0 0 0 0 0 0 0 0 0 0 0 0 0 0 0 0 0 0 0 0 0 0 0 0 0 0 0 0 0 0 0 0 0 0 36 0 218 32 0 222 28 0 226 24 4 226 20 4 230 16 4 234 8 8 238 4 12 238 0 12 242 0 0 0 
0 0 0 0 0 0 0 0 0 0 0 0 0 0 0 0 0 0 0 0 0 0 0 0 0 0 0 0 0 0 0 0 0 0 0 0 0 0 0 0 0 0 152 60 239 0 0 0 0 0 0 0 0 0 0 0 0 0 0 0 0 0 0 0 0 0 0 0 0 0 0 0 0 0 0 0 0 0 0 0 0 0 0 0 0 0 0 0 0 0 0 0 0 0 0 0 0 0 0 0 0 0 0 0 0 0 0 0 0 0 0 0 0 0 0 0 0 0 0 0 0 0 0 0 0 0 0 0 0 0 0 0 0 0 0 0 0 0 0 0 0 0 0 0 0 0 0 0 0 0 0 0 0 0 0 0 0 0 0 0 0 0 0 0 0 0 0 0 0 0 0 48 0 206 44 0 210 40 0 214 36 4 214 32 4 218 28 4 222 24 8 222 20 8 226 12 12 230 8 12 234 4 16 234 0 16 238 0 0 0 
0 0 0 0 0 0 0 0 0 0 0 0 0 0 0 0 0 0 0 0 0 0 0 0 0 0 0 0 0 0 0 0 0 0 0 0 0 0 0 0 0 0 0 0 0 153 64 240 0 0 0 0 0 0 0 0 0 0 0 0 0 0 0 0 0 0 0 0 0 0 0 0 0 0 0 0 0 0 0 0 0 0 0 0 0 0 0 0 0 0 0 0 0 0 0 0 0 0 0 0 0 0 0 0 0 0 0 0 0 0 0 0 0 0 0 0 0 0 0 0 0 0 0 0 0 0 0 0 0 0 0 0 0 0 0 0 0 0 0 0 0 0 0 0 0 0 0 0 0 0 0 0 0 0 0 0 0 0 0 0 0 0 0 0 0 60 0 194 56 0 198 52 0 202 44 4 206 40 8 206 36 8 210 32 8 214 28 8 218 20 12 222 16 16 222 12 16 226 8 16 230 4 20 230 0 20 234 0 0 0 
0 0 0 0 0 0 0 0 0 0 0 0 0 0 0 0 0 0 0 0 0 0 0 0 0 0 0 0 0 0 0 0 0 0 0 0 0 0 0 0 0 0 0 0 0 0 0 0 155 67 240 0 0 0 0 0 0 0 0 0 0 0 0 0 0 0 0 0 0 0 0 0 0 0 0 0 0 0 0 0 0 0 0 0 0 0 0 0 0 0 0 0 0 0 0 0 0 0 0 0 0 0 0 0 0 0 0 0 0 0 0 0 0 0 0 0 0 0 0 0 0 0 0 0 0 0 0 0 0 0 0 0 0 0 0 0 0 0 0 0 0 0 0 0 0 0 0 0 0 0 0 0 0 0 0 0 72 0 182 68 0 186 64 4 186 60 4 190 52 8 194 48 8 198 44 8 202 40 12 202 36 12 206 32 12 210 24 16 214 20 16 218 16 20 218 12 20 222 8 24 222 0 24 230 0 0 0 0 0 0 
0 0 0 0 0 0 0 0 0 0 0 0 0 0 0 0 0 0 0 0 0 0 0 0 0 0 0 0 0 0 0 0 0 0 0 0 0 0 0 0 0 0 0 0 0 0 0 0 0 0 0 157 70 240 0 0 0 0 0 0 0 0 0 0 0 0 0 0 0 0 0 0 0 0 0 0 0 0 0 0 0 0 0 0 0 0 0 0 0 0 0 0 0 0 0 0 0 0 0 0 0 0 0 0 0 0 0 0 0 0 0 0 0 0 0 0 0 0 0 0 0 0 0 0 0 0 0 0 0 0 0 0 0 0 0 0 0 0 0 0 0 0 0 0 89 0 165 85 0 169 80 0 174 76 4 174 72 4 178 68 4 182 60 8 186 56 8 190 52 12 190 48 12 194 44 12 198 40 16 198 32 20 202 28 20 206 24 20 210 20 24 210 16 24 214 12 24 218 4 28 222 0 28 226 0 0 0 0 0 0 
0 0 0 0 0 0 0 0 0 0 0 0 0 0 0 0 0 0 0 0 0 0 0 0 0 0 0 0 0 0 0 0 0 0 0 0 0 0 0 0 0 0 0 0 0 0 0 0 0 0 0 0 0 0 158 73 240 0 0 0 0 0 0 0 0 0 0 0 0 0 0 0 0 0 0 0 0 0 0 0 0 0 0 0 0 0 0 0 0 0 0 0 0 0 0 0 0 0 0 0 0 0 0 0 0 0 0 0 0 0 0 0 0 0 0 0 0 0 0 0 0 0 0 0 0 0 0 0 0 0 0 0 0 0 0 101 0 153 97 0 157 93 0 161 89 4 161 85 4 165 80 4 170 76 8 169 72 8 174 64 12 178 60 12 182 56 12 186 52 16 186 48 16 190 44 16 194 36 20 198 32 24 198 28 24 202 24 24 206 20 28 206 12 28 214 8 32 214 4 32 218 0 32 222 0 0 0 0 0 0 
0 0 0 0 0 0 0 0 0 0 0 0 0 0 0 0 0 0 0 0 0 0 0 0 0 0 0 0 0 0 0 0 0 0 0 0 0 0 0 0 0 0 0 0 0 0 0 0 0 0 0 0 0 0 0 0 0 160 76 241 0 0 0 0 0 0 0 0 0 0 0 0 0 0 0 0 0 0 0 0 0 0 0 0 0 0 0 0 0 0 0 0 0 0 0 0 0 0 0 0 0 0 0 0 0 0 0 0 0 0 0 0 0 0 0 0 0 0 0 0 0 0 0 0 0 0 0 0 0 113 0 141 109 0 145 105 0 149 97 4 153 93 4 157 89 8 157 85 8 161 80 8 165 72 12 170 68 16 169 64 16 174 60 16 178 56 20 178 52 20 182 48 20 186 40 24 190 36 24 194 32 28 194 28 28 198 24 28 202 16 32 206 12 36 206 8 36 210 4 36 214 0 40 214 0 0 0 0 0 0 
0 0 0 0 0 0 0 0 0 0 0 0 0 0 0 0 0 0 0 0 0 0 0 0 0 0 0 0 0 0 0 0 0 0 0 0 0 0 0 0 0 0 0 0 0 0 0 0 0 0 0 0 0 0 0 0 0 0 0 0 163 83 241 0 0 0 0 0 0 0 0 0 0 0 0 0 0 0 0 0 0 0 0 0 0 0 0 0 0 0 0 0 0 0 0 0 0 0 0 0 0 0 0 0 0 0 0 0 0 0 0 0 0 0 0 0 0 0 0 0 125 0 129 121 0 133 117 0 137 113 4 137 105 4 145 101 8 145 97 8 149 93 12 149 89 12 153 85 12 157 80 12 161 72 16 165 68 20 165 64 20 170 60 20 174 52 24 178 48 24 182 44 28 182 40 28 186 36 32 186 32 32 190 28 32 194 20 36 198 16 36 202 12 40 202 8 40 206 4 40 210 0 0 0 0 0 0 0 0 0 
0 0 0 0 0 0 0 0 0 0 0 0 0 0 0 0 0 0 0 0 0 0 0 0 0 0 0 0 0 0 0 0 0 0 0 0 0 0 0 0 0 0 0 0 0 0 0 0 0 0 0 0 0 0 0 0 0 0 0 0 0 0 0 165 86 241 0 0 0 0 0 0 0 0 0 0 0 0 0 0 0 0 0 0 0 0 0 0 0 0 0 0 0 0 0 0 0 0 0 0 0 0 0 0 0 0 0 0 0 0 0 137 0 117 133 0 121 129 0 125 125 4 125 121 4 129 117 4 133 109 8 137 105 12 137 101 12 141 97 12 145 93 16 145 85 16 153 80 20 153 76 20 157 72 20 161 68 24 161 64 24 165 60 24 170 52 28 174 48 32 174 44 32 178 40 32 182 36 36 182 28 36 190 24 40 190 20 40 194 16 40 198 12 44 198 8 44 202 0 48 206 0 0 0 0 0 0 0 0 0 
0 0 0 0 0 0 0 0 0 0 0 0 0 0 0 0 0 0 0 0 0 0 0 0 0 0 0 0 0 0 0 0 0 0 0 0 0 0 0 0 0 0 0 0 0 0 0 0 0 0 0 0 0 0 0 0 0 0 0 0 0 0 0 0 0 0 167 89 242 0 0 0 0 0 0 0 0 0 0 0 0 0 0 0 0 0 0 0 0 0 0 0 0 0 0 0 0 0 0 0 0 0 149 0 105 145 0 109 141 0 113 137 4 113 133 4 117 129 8 117 125 8 121 121 8 125 113 12 129 109 12 133 105 16 133 101 16 137 97 16 141 89 20 145 85 20 149 80 24 149 76 24 153 72 28 153 68 28 157 60 32 161 56 32 165 52 32 170 48 36 170 44 36 174 40 36 178 32 40 182 28 40 186 24 44 186 20 44 190 16 48 190 8 48 198 4 52 198 0 52 202 0 0 0 0 0 0 0 0 0 
0 0 0 0 0 0 0 0 0 0 0 0 0 0 0 0 0 0 0 0 0 0 0 0 0 0 0 0 0 0 0 0 0 0 0 0 0 0 0 0 0 0 0 0 0 0 0 0 0 0 0 0 0 0 0 0 0 0 0 0 0 0 0 0 0 0 0 0 0 168 92 242 0 0 0 0 0 0 0 0 0 0 0 0 0 0 0 0 0 0 0 0 0 0 0 0 161 0 93 157 0 97 153 0 101 145 4 105 141 8 105 137 8 109 133 8 113 125 12 117 121 12 121 117 16 121 113 16 125 109 16 129 105 20 129 101 20 133 93 24 137 89 24 141 85 28 141 80 28 145 76 28 149 68 32 153 64 32 157 60 36 157 56 36 161 52 36 165 48 40 165 40 44 170 36 44 174 32 44 178 28 48 178 24 48 182 20 48 186 12 52 190 8 52 194 4 56 194 0 56 198 0 0 0 0 0 0 0 0 0 
0 0 0 0 0 0 0 0 0 0 0 0 0 0 0 0 0 0 0 0 0 0 0 0 0 0 0 0 0 0 0 0 0 0 0 0 0 0 0 0 0 0 0 0 0 0 0 0 0 0 0 0 0 0 0 0 0 0 0 0 0 0 0 0 0 0 0 0 0 0 0 0 170 95 242 0 0 0 0 0 0 0 0 0 178 0 76 174 0 80 170 0 84 165 4 84 157 4 93 153 8 93 149 8 97 145 8 101 141 12 101 137 12 105 133 12 109 125 16 113 121 20 113 117 20 117 113 20 121 109 20 125 101 24 129 97 28 129 93 28 133 89 28 137 85 32 137 80 32 141 72 36 145 68 36 149 64 40 149 60 40 153 56 40 157 52 40 161 44 44 165 40 48 165 36 48 170 32 48 174 28 52 174 24 52 178 16 56 182 12 56 186 8 60 186 4 60 190 0 60 194 0 0 0 0 0 0 0 0 0 
0 0 0 0 0 0 0 0 0 0 0 0 0 0 0 0 0 0 0 0 0 0 0 0 0 0 0 0 0 0 0 0 0 0 0 0 0 0 0 0 0 0 0 0 0 0 0 0 0 0 0 0 0 0 0 0 0 0 0 0 0 0 0 0 0 0 0 0 0 0 0 0 0 0 0 190 0 64 186 0 68 182 0 72 178 4 72 174 4 76 170 4 80 161 8 84 157 8 89 153 12 89 149 12 93 145 16 93 141 16 97 133 20 101 129 20 105 125 20 109 121 24 109 117 24 113 113 24 117 105 28 121 101 28 125 97 32 125 93 32 129 89 36 129 80 36 137 76 40 137 72 40 141 68 40 145 64 44 145 60 44 149 56 44 153 48 48 157 44 48 161 40 52 161 36 52 165 32 52 170 24 56 174 20 60 174 16 60 178 12 60 182 8 64 182 4 64 186 0 0 0 0 0 0 0 0 0 0 0 0 
0 0 0 0 0 0 0 0 0 0 0 0 0 0 0 0 0 0 0 0 0 0 0 0 0 0 0 0 0 0 0 0 0 0 0 0 0 0 0 0 0 0 0 0 0 0 0 0 0 0 0 0 0 0 0 0 0 0 0 0 0 0 0 0 0 0 202 0 52 198 0 56 194 0 60 190 4 60 186 4 64 182 4 68 178 8 68 174 8 72 165 12 76 161 12 80 157 16 80 153 16 84 149 16 89 141 20 93 137 20 97 133 24 97 129 24 101 125 24 105 121 28 105 113 28 113 109 32 113 105 32 117 101 36 117 97 36 121 93 36 125 85 40 129 80 40 133 76 44 133 72 44 137 68 44 141 60 48 145 56 48 149 52 52 149 48 52 153 44 56 153 40 56 157 36 56 161 28 60 165 24 60 170 20 64 169 16 64 174 12 64 178 4 68 182 0 68 186 0 0 0 0 0 0 0 0 0 0 0 0 
0 0 0 0 0 0 0 0 0 0 0 0 0 0 0 0 0 0 0 0 0 0 0 0 0 0 0 0 0 0 0 0 0 0 0 0 0 0 0 0 0 0 0 0 0 0 0 0 0 0 0 0 0 0 0 0 0 0 0 0 214 0 40 210 0 44 206 0 48 198 4 52 194 4 56 190 8 56 186 8 60 182 12 60 174 12 68 170 16 68 165 16 72 161 16 76 157 20 76 153 20 80 145 24 84 141 24 89 137 24 93 133 28 93 129 28 97 125 28 101 117 32 105 113 36 105 109 36 109 105 36 113 101 40 113 97 40 117 89 44 121 85 44 125 80 44 129 76 48 129 72 48 133 68 48 137 60 52 141 56 56 141 52 56 145 48 56 149 44 60 149 36 60 157 32 64 157 28 64 161 24 64 165 20 68 165 16 68 169 12 68 174 4 72 178 0 76 178 0 0 0 0 0 0 0 0 0 0 0 0 
0 0 0 0 0 0 0 0 0 0 0 0 0 0 0 0 0 0 0 0 0 0 0 0 0 0 0 0 0 0 0 0 0 0 0 0 0 0 0 0 0 0 0 0 0 0 0 0 0 0 0 226 0 28 222 0 32 218 0 36 214 4 36 206 8 40 202 8 44 198 8 48 194 12 48 190 12 52 186 12 56 178 16 60 174 16 64 170 20 64 165 20 68 161 20 72 153 24 76 149 28 76 145 28 80 141 28 84 137 32 84 133 32 89 129 32 93 121 36 97 117 36 101 113 40 101 109 40 105 105 40 109 97 44 113 93 48 113 89 48 117 85 48 121 80 52 121 76 52 125 68 56 129 64 56 133 60 56 137 56 60 137 52 60 141 48 60 145 40 64 149 36 68 149 32 68 153 28 68 157 24 72 157 16 72 165 12 76 165 8 76 169 4 76 174 0 80 174 0 0 0 0 0 0 0 0 0 0 0 0 
0 0 0 0 0 0 0 0 0 0 0 0 0 0 0 0 0 0 0 0 0 0 0 0 0 0 0 0 0 0 0 0 0 0 0 0 0 0 0 0 0 0 238 0 16 234 0 20 230 4 20 226 4 24 222 4 28 218 4 32 210 8 36 206 12 36 202 12 40 198 12 44 194 16 44 186 16 52 182 20 52 178 20 56 174 24 56 170 24 60 165 24 64 161 24 68 153 28 72 149 32 72 145 32 76 141 32 80 133 36 84 129 36 89 125 40 89 121 40 93 117 44 93 113 44 97 109 44 101 101 48 105 97 48 109 93 52 109 89 52 113 85 52 117 76 56 121 72 56 125 68 60 125 64 60 129 60 64 129 56 64 133 48 68 137 44 68 141 40 68 145 36 72 145 32 72 149 28 72 153 20 76 157 16 76 161 12 80 161 8 80 165 4 85 165 0 85 169 0 0 0 0 0 0 0 0 0 0 0 0 
0 0 0 0 0 0 0 0 0 0 0 0 0 0 0 0 0 0 0 0 0 0 0 0 0 0 0 0 0 0 255 0 0 250 0 4 246 0 8 242 4 8 238 4 12 234 4 16 230 8 16 226 8 20 218 12 24 214 12 28 210 12 32 206 16 32 202 16 36 198 16 40 190 20 44 186 24 44 182 24 48 178 24 52 174 28 52 170 28 56 161 32 60 157 32 64 153 32 68 149 36 68 145 36 72 141 36 76 133 40 80 129 44 80 125 44 84 121 44 89 117 48 89 109 48 97 105 52 97 101 52 101 97 52 105 93 56 105 89 56 109 85 56 113 76 60 117 72 64 117 68 64 121 64 64 125 56 68 129 52 68 133 48 72 133 44 72 137 40 72 141 36 76 141 32 76 145 24 80 149 20 80 153 16 85 153 12 85 157 8 85 161 0 89 165 0 0 0 0 0 0 0 0 0 0 0 0 0 0 0 
0 0 0 0 0 0 0 0 0 0 0 0 0 0 0 0 0 0 0 0 0 0 0 0 0 0 0 0 0 0 0 0 0 255 0 0 246 4 4 242 8 4 238 8 8 234 8 12 226 12 16 222 12 20 218 16 20 214 16 24 210 20 24 206 20 28 202 20 32 194 24 36 190 24 40 186 28 40 182 28 44 178 28 48 170 32 52 165 32 56 161 36 56 157 36 60 153 40 60 149 40 64 141 44 68 137 44 72 133 44 76 129 48 76 125 48 80 121 48 85 113 52 89 109 52 93 105 56 93 101 56 97 97 60 97 89 60 105 85 64 105 80 64 109 76 64 113 72 68 113 68 68 117 64 68 121 56 72 125 52 72 129 48 76 129 44 76 133 40 76 137 32 80 141 28 85 141 24 85 145 20 85 149 16 89 149 12 89 153 4 93 157 0 93 161 0 0 0 0 0 0 0 0 0 0 0 0 0 0 0 
0 0 0 0 0 0 0 0 0 0 0 0 0 0 0 0 0 0 0 0 0 0 0 0 0 0 0 0 0 0 0 0 0 0 0 0 246 8 0 242 12 0 238 12 4 234 12 8 226 16 12 222 20 12 218 20 16 214 20 20 206 24 24 202 24 28 198 28 28 194 28 32 190 28 36 186 32 36 182 32 40 174 36 44 170 36 48 165 40 48 161 40 52 157 40 56 149 44 60 145 44 64 141 48 64 137 48 68 133 48 72 129 52 72 121 56 76 117 56 80 113 56 85 109 60 84 105 60 89 101 60 93 93 64 97 89 64 101 85 68 101 80 68 105 76 68 109 72 72 109 64 76 113 60 76 117 56 76 121 52 80 121 48 80 125 44 80 129 36 85 133 32 85 137 28 89 137 24 89 141 20 89 145 12 93 149 8 97 149 4 97 153 0 97 157 0 0 0 0 0 0 0 0 0 0 0 0 0 0 0 
0 0 0 0 0 0 0 0 0 0 0 0 0 0 0 0 0 0 0 0 0 0 0 0 0 0 0 0 0 0 0 0 0 0 0 0 0 0 0 238 16 0 234 20 0 230 20 4 226 20 8 222 24 8 218 24 12 214 24 16 206 28 20 202 32 20 198 32 24 194 32 28 190 36 28 182 36 36 178 40 36 174 40 40 170 40 44 165 44 44 161 44 48 157 44 52 149 48 56 145 52 56 141 52 60 137 52 64 133 52 68 125 56 72 121 60 72 117 60 76 113 60 80 109 64 80 105 64 85 97 68 89 93 68 93 89 72 93 85 72 97 80 72 101 76 72 105 68 76 109 64 80 109 60 80 113 56 80 117 52 85 117 44 85 125 40 89 125 36 89 129 32 93 129 28 93 133 24 93 137 20 93 141 12 97 145 8 101 145 4 101 149 0 101 153 0 0 0 0 0 0 0 0 0 0 0 0 0 0 0 
0 0 0 0 0 0 0 0 0 0 0 0 0 0 0 0 0 0 0 0 0 0 0 0 0 0 0 0 0 0 0 0 0 0 0 0 0 0 0 0 0 0 0 0 0 230 24 0 226 24 4 222 28 4 214 32 8 210 32 12 206 32 16 202 36 16 198 36 20 194 36 24 186 40 28 182 40 32 178 44 32 174 44 36 170 44 40 161 48 44 157 52 44 153 52 48 149 52 52 145 56 52 141 56 56 137 56 60 129 60 64 125 60 68 121 64 68 117 64 72 113 64 76 105 68 80 101 72 80 97 72 85 93 72 89 89 76 89 85 76 93 76 80 97 72 80 101 68 80 105 64 85 105 60 85 109 56 85 113 48 89 117 44 93 117 40 93 121 36 93 125 32 97 125 24 97 133 20 101 133 16 101 137 12 101 141 8 105 141 4 105 145 0 105 149 0 0 0 0 0 0 0 0 0 0 0 0 0 0 0 
0 0 0 0 0 0 0 0 0 0 0 0 0 0 0 0 0 0 0 0 0 0 0 0 0 0 0 0 0 0 0 0 0 0 0 0 0 0 0 0 0 0 0 0 0 0 0 0 226 28 0 218 32 4 214 36 4 210 36 8 206 36 12 202 40 12 194 40 20 190 44 20 186 44 24 182 48 24 178 48 28 174 48 32 170 48 36 161 52 40 157 56 40 153 56 44 149 56 48 145 60 48 137 60 56 133 64 56 129 64 60 125 68 60 121 68 64 117 68 68 109 72 72 105 72 76 101 76 76 97 76 80 93 76 84 85 80 89 80 80 93 76 85 93 72 85 97 68 89 97 64 89 101 60 89 105 52 93 109 48 93 113 44 97 113 40 97 117 36 97 121 28 101 125 24 101 129 20 105 129 16 105 133 12 109 133 8 109 137 0 113 141 0 0 0 0 0 0 0 0 0 0 0 0 0 0 0 0 0 0 
0 0 0 0 0 0 0 0 0 0 0 0 0 0 0 0 0 0 0 0 0 0 0 0 0 0 0 0 0 0 0 0 0 0 0 0 0 0 0 0 0 0 0 0 0 0 0 0 0 0 0 218 36 0 214 40 0 210 40 4 206 40 8 198 44 12 194 48 12 190 48 16 186 48 20 182 52 20 178 52 24 170 56 28 165 56 32 161 56 36 157 60 36 153 60 40 149 60 44 141 64 48 137 68 48 133 68 52 129 68 56 125 72 56 117 72 64 113 76 64 109 76 68 105 76 72 101 80 72 97 80 76 93 80 80 85 85 84 80 89 85 76 89 89 72 89 93 64 93 97 60 93 101 56 97 101 52 97 105 48 97 109 44 101 109 40 101 113 32 105 117 28 105 121 24 109 121 20 109 125 16 109 129 8 113 133 4 113 137 0 117 137 0 0 0 0 0 0 0 0 0 0 0 0 0 0 0 0 0 0 
0 0 0 0 0 0 0 0 0 0 0 0 0 0 0 0 0 0 0 0 0 0 0 0 0 0 0 0 0 0 0 0 0 0 0 0 0 0 0 0 0 0 0 0 0 0 0 0 0 0 0 0 0 0 0 0 0 210 44 0 202 48 4 198 48 8 194 52 8 190 52 12 186 52 16 178 56 20 174 60 20 170 60 24 165 60 28 161 64 28 157 64 32 149 68 36 145 68 40 141 68 44 137 72 44 133 72 48 129 72 52 121 76 56 117 80 56 113 80 60 109 80 64 105 85 64 97 85 72 93 89 72 89 89 76 85 89 80 80 93 80 76 93 84 72 93 89 64 97 93 60 101 93 56 101 97 52 101 101 48 105 101 40 105 109 36 109 109 32 109 113 28 109 117 24 113 117 20 113 121 12 117 125 8 117 129 4 121 129 0 121 133 0 0 0 0 0 0 0 0 0 0 0 0 0 0 0 0 0 0 
0 0 0 0 0 0 0 0 0 0 0 0 0 0 0 0 0 0 0 0 0 0 0 0 0 0 0 0 0 0 0 0 0 0 0 0 0 0 0 0 0 0 0 0 0 0 0 0 0 0 0 0 0 0 0 0 0 0 0 0 202 52 0 198 52 4 194 56 4 190 56 8 182 60 12 178 60 16 174 64 16 170 64 20 165 64 24 157 68 28 153 68 32 149 72 32 145 72 36 141 72 40 137 76 40 133 76 44 125 80 48 121 80 52 117 85 52 113 85 56 109 85 60 101 89 64 97 89 68 93 93 68 89 93 72 85 93 76 80 97 76 72 101 80 68 101 84 64 101 89 60 105 89 56 105 93 52 105 97 44 109 101 40 109 105 36 113 105 32 113 109 28 113 113 20 117 117 16 121 117 12 121 121 8 121 125 4 125 125 0 125 129 0 0 0 0 0 0 0 0 0 0 0 0 0 0 0 0 0 0 
0 0 0 0 0 0 0 0 0 0 0 0 0 0 0 0 0 0 0 0 0 0 0 0 0 0 0 0 0 0 0 0 0 0 0 0 0 0 0 0 0 0 0 0 0 0 0 0 0 0 0 0 0 0 0 0 0 0 0 0 0 0 0 198 56 0 190 60 4 186 64 4 182 64 8 178 64 12 174 68 12 170 68 16 165 68 20 157 72 24 153 76 24 149 76 28 145 76 32 141 76 36 133 80 40 129 85 40 125 85 44 121 85 48 117 89 48 113 89 52 105 93 56 101 93 60 97 97 60 93 97 64 89 97 68 85 97 72 76 101 76 72 105 76 68 105 80 64 105 85 60 109 85 52 109 93 48 113 93 44 113 97 40 117 97 36 117 101 32 117 105 28 117 109 20 121 113 16 125 113 12 125 117 8 125 121 0 129 125 0 0 0 0 0 0 0 0 0 0 0 0 0 0 0 0 0 0 0 0 0 
0 0 0 0 0 0 0 0 0 0 0 0 0 0 0 0 0 0 0 0 0 0 0 0 0 0 0 0 0 0 0 0 0 0 0 0 0 0 0 0 0 0 0 0 0 0 0 0 0 0 0 0 0 0 0 0 0 0 0 0 0 0 0 0 0 0 190 64 0 186 68 0 182 68 4 178 72 4 170 72 12 165 76 12 161 76 16 157 76 20 153 80 20 149 80 24 145 80 28 137 85 32 133 85 36 129 89 36 125 89 40 121 93 40 113 93 48 109 97 48 105 97 52 101 97 56 97 101 56 93 101 60 85 105 64 80 105 68 76 105 72 72 109 72 68 109 76 64 109 80 56 113 85 52 117 85 48 117 89 44 117 93 40 121 93 36 121 97 28 125 101 24 125 105 20 125 109 16 129 109 12 129 113 8 129 117 0 133 121 0 0 0 0 0 0 0 0 0 0 0 0 0 0 0 0 0 0 0 0 0 
0 0 0 0 0 0 0 0 0 0 0 0 0 0 0 0 0 0 0 0 0 0 0 0 0 0 0 0 0 0 0 0 0 0 0 0 0 0 0 0 0 0 0 0 0 0 0 0 0 0 0 0 0 0 0 0 0 0 0 0 0 0 0 0 0 0 0 0 0 0 0 0 182 72 0 174 76 4 170 76 8 165 80 8 161 80 12 157 80 16 153 85 16 145 89 20 141 89 24 137 89 28 133 93 28 129 93 32 125 93 36 117 97 40 113 97 44 109 101 44 105 101 48 101 101 52 93 105 56 89 109 56 85 109 60 80 109 64 76 113 64 72 113 68 68 113 72 60 117 76 56 117 80 52 121 80 48 121 85 44 121 89 36 125 93 32 129 93 28 129 97 24 129 101 20 133 101 16 133 105 8 137 109 4 137 113 0 137 117 0 0 0 0 0 0 0 0 0 0 0 0 0 0 0 0 0 0 0 0 0 
0 0 0 0 0 0 0 0 0 0 0 0 0 0 0 0 0 0 0 0 0 0 0 0 0 0 0 0 0 0 0 0 0 0 0 0 0 0 0 0 0 0 0 0 0 0 0 0 0 0 0 0 0 0 0 0 0 0 0 0 0 0 0 0 0 0 0 0 0 0 0 0 0 0 0 174 80 0 170 80 4 165 85 4 161 85 8 157 85 12 149 89 16 145 93 16 141 93 20 137 93 24 133 97 24 125 97 32 121 101 32 117 101 36 113 101 40 109 105 40 105 105 44 101 105 48 93 109 52 89 113 52 85 113 56 80 113 60 72 117 64 68 117 68 64 121 68 60 121 72 56 121 76 52 125 76 48 125 80 40 129 84 36 129 89 32 133 89 28 133 93 24 133 97 16 137 101 12 137 105 8 141 105 4 141 109 0 141 113 0 0 0 0 0 0 0 0 0 0 0 0 0 0 0 0 0 0 0 0 0 
0 0 0 0 0 0 0 0 0 0 0 0 0 0 0 0 0 0 0 0 0 0 0 0 0 0 0 0 0 0 0 0 0 0 0 0 0 0 0 0 0 0 0 0 0 0 0 0 0 0 0 0 0 0 0 0 0 0 0 0 0 0 0 0 0 0 0 0 0 0 0 0 0 0 0 0 0 0 170 85 0 165 89 0 157 93 4 153 93 8 149 93 12 145 97 12 141 97 16 137 97 20 129 101 24 125 105 24 121 105 28 117 105 32 113 109 32 105 109 40 101 113 40 97 113 44 93 113 48 89 117 48 85 117 52 80 117 56 72 121 60 68 125 60 64 125 64 60 125 68 56 129 68 48 129 76 44 133 76 40 133 80 36 133 84 32 137 84 28 137 89 24 137 93 16 141 97 12 145 97 8 145 101 4 145 105 0 145 109 0 0 0 0 0 0 0 0 0 0 0 0 0 0 0 0 0 0 0 0 0 
0 0 0 0 0 0 0 0 0 0 0 0 0 0 0 0 0 0 0 0 0 0 0 0 0 0 0 0 0 0 0 0 0 0 0 0 0 0 0 0 0 0 0 0 0 0 0 0 0 0 0 0 0 0 0 0 0 0 0 0 0 0 0 0 0 0 0 0 0 0 0 0 0 0 0 0 0 0 0 0 0 161 93 0 157 97 0 153 97 4 149 101 4 145 101 8 141 101 12 133 105 16 129 105 20 125 109 20 121 109 24 117 109 28 109 113 32 105 113 36 101 117 36 97 117 40 93 121 40 89 121 44 80 125 48 76 125 52 72 125 56 68 129 56 64 129 60 60 129 64 52 133 68 48 133 72 44 137 72 40 137 76 36 141 76 28 141 84 24 145 84 20 145 89 16 145 93 12 149 93 8 149 97 4 149 101 0 0 0 0 0 0 0 0 0 0 0 0 0 0 0 0 0 0 0 0 0 0 0 0 
0 0 0 0 0 0 0 0 0 0 0 0 0 0 0 0 0 0 0 0 0 0 0 0 0 0 0 0 0 0 0 0 0 0 0 0 0 0 0 0 0 0 0 0 0 0 0 0 0 0 0 0 0 0 0 0 0 0 0 0 0 0 0 0 0 0 0 0 0 0 0 0 0 0 0 0 0 0 0 0 0 0 0 0 0 0 0 153 101 0 145 105 4 141 105 8 137 109 8 133 109 12 129 109 16 125 113 16 121 113 20 113 117 24 109 117 28 105 121 28 101 121 32 97 121 36 89 125 40 85 125 44 80 129 44 76 129 48 72 129 52 68 133 52 60 137 56 56 137 60 52 137 64 48 141 64 44 141 68 40 141 72 32 145 76 28 145 80 24 149 80 20 149 84 16 149 89 12 153 89 4 157 93 0 157 97 0 0 0 0 0 0 0 0 0 0 0 0 0 0 0 0 0 0 0 0 0 0 0 0 
0 0 0 0 0 0 0 0 0 0 0 0 0 0 0 0 0 0 0 0 0 0 0 0 0 0 0 0 0 0 0 0 0 0 0 0 0 0 0 0 0 0 0 0 0 0 0 0 0 0 0 0 0 0 0 0 0 0 0 0 0 0 0 0 0 0 0 0 0 0 0 0 0 0 0 0 0 0 0 0 0 0 0 0 0 0 0 0 0 0 145 109 0 141 109 4 137 113 4 133 113 8 129 117 8 121 117 16 117 121 16 113 121 20 109 121 24 105 125 24 101 125 28 97 125 32 89 129 36 85 129 40 80 133 40 76 133 44 72 133 48 64 137 52 60 141 52 56 141 56 52 141 60 48 145 60 44 145 64 36 149 68 32 149 72 28 149 76 24 153 76 20 153 80 16 153 84 8 157 89 4 161 89 0 161 93 0 0 0 0 0 0 0 0 0 0 0 0 0 0 0 0 0 0 0 0 0 0 0 0 
0 0 0 0 0 0 0 0 0 0 0 0 0 0 0 0 0 0 0 0 0 0 0 0 0 0 0 0 0 0 0 0 0 0 0 0 0 0 0 0 0 0 0 0 0 0 0 0 0 0 0 0 0 0 0 0 0 0 0 0 0 0 0 0 0 0 0 0 0 0 0 0 0 0 0 0 0 0 0 0 0 0 0 0 0 0 0 149 105 0 0 0 0 141 113 0 137 117 0 133 117 4 125 121 8 121 121 12 117 125 12 113 125 16 109 125 20 101 129 24 97 133 24 93 133 28 89 133 32 85 137 32 80 137 36 76 137 40 68 141 44 64 141 48 60 145 48 56 145 52 52 145 56 44 149 60 40 153 60 36 153 64 32 153 68 28 157 68 24 157 72 16 161 76 12 161 80 8 161 84 4 165 84 0 165 89 0 0 0 0 0 0 0 0 0 0 0 0 0 0 0 0 0 0 0 0 0 0 0 0 
0 0 0 0 0 0 0 0 0 0 0 0 0 0 0 0 0 0 0 0 0 0 0 0 0 0 0 0 0 0 0 0 0 0 0 0 0 0 0 0 0 0 0 0 0 0 0 0 0 0 0 0 0 0 0 0 0 0 0 0 0 0 0 0 0 0 0 0 0 0 0 0 0 0 0 0 0 0 0 0 0 160 94 0 154 100 0 0 0 0 0 0 0 0 0 0 133 121 0 129 125 0 125 125 4 121 129 4 117 129 8 113 129 12 109 129 16 101 133 20 97 137 20 93 137 24 89 137 28 85 141 28 76 141 36 72 145 36 68 145 40 64 149 40 60 149 44 56 149 48 48 153 52 44 153 56 40 157 56 36 157 60 32 157 64 24 161 68 20 161 72 16 165 72 12 165 76 8 170 76 4 170 80 0 170 84 0 0 0 0 0 0 0 0 0 0 0 0 0 0 0 0 0 0 0 0 0 0 0 0 
0 0 0 0 0 0 0 0 0 0 0 0 0 0 0 0 0 0 0 0 0 0 0 0 0 0 0 0 0 0 0 0 0 0 0 0 0 0 0 0 0 0 0 0 0 0 0 0 0 0 0 0 0 0 0 0 0 0 0 0 0 0 0 0 0 0 0 0 0 0 0 0 0 0 0 0 0 0 165 89 0 0 0 0 0 0 0 0 0 0 0 0 0 0 0 0 0 0 0 0 0 0 125 129 0 121 133 0 117 133 4 109 137 8 105 137 12 101 137 16 97 141 16 93 141 20 89 141 24 80 145 28 76 149 28 72 149 32 68 149 36 64 153 36 56 153 44 52 157 44 48 157 48 44 157 52 40 161 52 36 161 56 32 161 60 24 165 64 20 170 64 16 170 68 12 170 72 4 174 76 0 174 80 0 0 0 0 0 0 0 0 0 0 0 0 0 0 0 0 0 0 0 0 0 0 0 0 0 0 0 
0 0 0 0 0 0 0 0 0 0 0 0 0 0 0 0 0 0 0 0 0 0 0 0 0 0 0 0 0 0 0 0 0 0 0 0 0 0 0 0 0 0 0 0 0 0 0 0 0 0 0 0 0 0 0 0 0 0 0 0 0 0 0 0 0 0 0 0 0 0 0 0 0 0 0 171 83 0 0 0 0 0 0 0 0 0 0 0 0 0 0 0 0 0 0 0 0 0 0 0 0 0 0 0 0 117 137 0 113 137 4 109 141 4 105 141 8 101 145 8 97 145 12 89 149 16 85 149 20 80 149 24 76 153 24 72 153 28 68 153 32 60 157 36 56 157 40 52 161 40 48 161 44 44 165 44 36 165 52 32 170 52 28 170 56 24 170 60 20 174 60 16 174 64 12 174 68 4 178 72 0 178 76 0 0 0 0 0 0 0 0 0 0 0 0 0 0 0 0 0 0 0 0 0 0 0 0 0 0 0 
0 0 0 0 0 0 0 0 0 0 0 0 0 0 0 0 0 0 0 0 0 0 0 0 0 0 0 0 0 0 0 0 0 0 0 0 0 0 0 0 0 0 0 0 0 0 0 0 0 0 0 0 0 0 0 0 0 0 0 0 0 0 0 0 0 0 0 0 0 0 0 0 176 78 0 0 0 0 0 0 0 0 0 0 0 0 0 0 0 0 0 0 0 0 0 0 0 0 0 0 0 0 0 0 0 0 0 0 113 141 0 109 145 0 105 145 4 97 149 8 93 149 12 89 153 12 85 153 16 80 153 20 76 157 20 72 157 24 64 161 28 60 161 32 56 165 32 52 165 36 48 165 40 40 170 44 36 170 48 32 174 48 28 174 52 24 174 56 20 178 56 12 182 60 8 182 64 4 182 68 0 186 68 0 0 0 0 0 0 0 0 0 0 0 0 0 0 0 0 0 0 0 0 0 0 0 0 0 0 0 
0 0 0 0 0 0 0 0 0 0 0 0 0 0 0 0 0 0 0 0 0 0 0 0 0 0 0 0 0 0 0 0 0 0 0 0 0 0 0 0 0 0 0 0 0 0 0 0 0 0 0 0 0 0 0 0 0 0 0 0 0 0 0 0 0 0 0 0 0 187 67 0 182 72 0 0 0 0 0 0 0 0 0 0 0 0 0 0 0 0 0 0 0 0 0 0 0 0 0 0 0 0 0 0 0 0 0 0 0 0 0 0 0 0 105 149 0 97 153 4 93 157 4 89 157 8 85 157 12 80 157 16 72 161 20 68 165 20 64 165 24 60 165 28 56 170 28 52 170 32 44 174 36 40 174 40 36 178 40 32 178 44 28 178 48 24 178 52 16 182 56 12 186 56 8 186 60 4 186 64 0 190 64 0 0 0 0 0 0 0 0 0 0 0 0 0 0 0 0 0 0 0 0 0 0 0 0 0 0 0 
0 0 0 0 0 0 0 0 0 0 0 0 0 0 0 0 0 0 0 0 0 0 0 0 0 0 0 0 0 0 0 0 0 0 0 0 0 0 0 0 0 0 0 0 0 0 0 0 0 0 0 0 0 0 0 0 0 0 0 0 0 0 0 0 0 0 193 61 0 0 0 0 0 0 0 0 0 0 0 0 0 0 0 0 0 0 0 0 0 0 0 0 0 0 0 0 0 0 0 0 0 0 0 0 0 0 0 0 0 0 0 0 0 0 0 0 0 97 157 0 93 161 0 89 161 4 85 161 8 76 165 12 72 165 16 68 170 16 64 170 20 60 174 20 52 174 28 48 178 28 44 178 32 40 178 36 36 182 36 32 182 40 24 186 44 20 186 48 16 186 52 12 190 52 8 190 56 4 190 60 0 0 0 0 0 0 0 0 0 0 0 0 0 0 0 0 0 0 0 0 0 0 0 0 0 0 0 0 0 0 
0 0 0 0 0 0 0 0 0 0 0 0 0 0 0 0 0 0 0 0 0 0 0 0 0 0 0 0 0 0 0 0 0 0 0 0 0 0 0 0 0 0 0 0 0 0 0 0 0 0 0 0 0 0 0 0 0 0 0 0 0 0 0 198 56 0 0 0 0 0 0 0 0 0 0 0 0 0 0 0 0 0 0 0 0 0 0 0 0 0 0 0 0 0 0 0 0 0 0 0 0 0 0 0 0 0 0 0 0 0 0 0 0 0 0 0 0 0 0 0 89 165 0 85 165 4 80 170 4 76 170 8 72 174 8 68 174 12 64 174 16 56 178 20 52 178 24 48 182 24 44 182 28 40 182 32 32 186 36 28 186 40 24 190 40 20 190 44 16 194 44 12 194 48 8 194 52 0 198 56 0 0 0 0 0 0 0 0 0 0 0 0 0 0 0 0 0 0 0 0 0 0 0 0 0 0 0 0 0 0 
0 0 0 0 0 0 0 0 0 0 0 0 0 0 0 0 0 0 0 0 0 0 0 0 0 0 0 0 0 0 0 0 0 0 0 0 0 0 0 0 0 0 0 0 0 0 0 0 0 0 0 0 0 0 0 0 0 0 0 0 204 50 0 0 0 0 0 0 0 0 0 0 0 0 0 0 0 0 0 0 0 0 0 0 0 0 0 0 0 0 0 0 0 0 0 0 0 0 0 0 0 0 0 0 0 0 0 0 0 0 0 0 0 0 0 0 0 0 0 0 0 0 0 85 170 0 80 174 0 76 174 4 72 178 4 64 178 12 60 182 12 56 182 16 52 182 20 48 186 20 44 186 24 40 186 28 32 190 32 28 194 32 24 194 36 20 194 40 12 198 44 8 198 48 4 202 48 0 202 52 0 0 0 0 0 0 0 0 0 0 0 0 0 0 0 0 0 0 0 0 0 0 0 0 0 0 0 0 0 0 
0 0 0 0 0 0 0 0 0 0 0 0 0 0 0 0 0 0 0 0 0 0 0 0 0 0 0 0 0 0 0 0 0 0 0 0 0 0 0 0 0 0 0 0 0 0 0 0 0 0 0 0 0 0 0 0 0 209 45 0 0 0 0 0 0 0 0 0 0 0 0 0 0 0 0 0 0 0 0 0 0 0 0 0 0 0 0 0 0 0 0 0 0 0 0 0 0 0 0 0 0 0 0 0 0 0 0 0 0 0 0 0 0 0 0 0 0 0 0 0 0 0 0 0 0 0 0 0 0 76 178 0 68 182 4 64 186 4 60 186 8 56 186 12 52 190 12 48 190 16 40 194 20 36 194 24 32 194 28 28 198 28 24 198 32 20 198 36 12 202 40 8 206 40 4 206 44 0 206 48 0 0 0 0 0 0 0 0 0 0 0 0 0 0 0 0 0 0 0 0 0 0 0 0 0 0 0 0 0 0 
0 0 0 0 0 0 0 0 0 0 0 0 0 0 0 0 0 0 0 0 0 0 0 0 0 0 0 0 0 0 0 0 0 0 0 0 0 0 0 0 0 0 0 0 0 0 0 0 0 0 0 220 34 0 215 39 0 0 0 0 0 0 0 0 0 0 0 0 0 0 0 0 0 0 0 0 0 0 0 0 0 0 0 0 0 0 0 0 0 0 0 0 0 0 0 0 0 0 0 0 0 0 0 0 0 0 0 0 0 0 0 0 0 0 0 0 0 0 0 0 0 0 0 0 0 0 0 0 0 0 0 0 68 186 0 64 190 0 60 190 4 56 190 8 48 194 12 44 194 16 40 198 16 36 198 20 32 202 20 28 202 24 20 206 28 16 206 32 12 206 36 8 210 36 4 210 40 0 210 44 0 0 0 0 0 0 0 0 0 0 0 0 0 0 0 0 0 0 0 0 0 0 0 0 0 0 0 0 0 0 
0 0 0 0 0 0 0 0 0 0 0 0 0 0 0 0 0 0 0 0 0 0 0 0 0 0 0 0 0 0 0 0 0 0 0 0 0 0 0 0 0 0 0 0 0 0 0 0 226 28 0 0 0 0 0 0 0 0 0 0 0 0 0 0 0 0 0 0 0 0 0 0 0 0 0 0 0 0 0 0 0 0 0 0 0 0 0 0 0 0 0 0 0 0 0 0 0 0 0 0 0 0 0 0 0 0 0 0 0 0 0 0 0 0 0 0 0 0 0 0 0 0 0 0 0 0 0 0 0 0 0 0 0 0 0 0 0 0 60 194 0 52 198 4 48 198 8 44 202 8 40 202 12 36 202 16 28 206 20 24 206 24 20 210 24 16 210 28 12 210 32 8 214 32 0 214 40 0 0 0 0 0 0 0 0 0 0 0 0 0 0 0 0 0 0 0 0 0 0 0 0 0 0 0 0 0 0 0 0 0 
0 0 0 0 0 0 0 0 0 0 0 0 0 0 0 0 0 0 0 0 0 0 0 0 0 0 0 0 0 0 0 0 0 0 0 0 0 0 0 0 0 0 0 0 0 231 23 0 0 0 0 0 0 0 0 0 0 0 0 0 0 0 0 0 0 0 0 0 0 0 0 0 0 0 0 0 0 0 0 0 0 0 0 0 0 0 0 0 0 0 0 0 0 0 0 0 0 0 0 0 0 0 0 0 0 0 0 0 0 0 0 0 0 0 0 0 0 0 0 0 0 0 0 0 0 0 0 0 0 0 0 0 0 0 0 0 0 0 56 198 0 52 202 0 48 202 4 44 206 4 40 206 8 36 206 12 28 210 16 24 210 20 20 214 20 16 214 24 12 214 28 4 218 32 0 222 32 234 216 252 0 0 0 0 0 0 0 0 0 0 0 0 0 0 0 0 0 0 0 0 0 0 0 0 0 0 0 0 0 0 
0 0 0 0 0 0 0 0 0 0 0 0 0 0 0 0 0 0 0 0 0 0 0 0 0 0 0 0 0 0 0 0 0 0 0 0 0 0 0 0 0 0 237 17 0 0 0 0 0 0 0 0 0 0 0 0 0 0 0 0 0 0 0 0 0 0 0 0 0 0 0 0 0 0 0 0 0 0 0 0 0 0 0 0 0 0 0 0 0 0 0 0 0 0 0 0 0 0 0 0 0 0 0 0 0 0 0 0 0 0 0 0 0 0 0 0 0 0 0 0 0 0 0 0 0 0 0 0 0 0 0 0 0 0 0 0 0 0 0 0 0 0 0 0 48 206 0 40 210 4 36 214 4 32 214 8 28 214 12 24 218 12 20 218 16 16 218 20 8 222 24 4 222 28 0 226 28 0 0 0 236 220 252 0 0 0 0 0 0 0 0 0 0 0 0 0 0 0 0 0 0 0 0 0 0 0 0 0 0 0 
0 0 0 0 0 0 0 0 0 0 0 0 0 0 0 0 0 0 0 0 0 0 0 0 0 0 0 0 0 0 0 0 0 0 0 0 0 0 0 0 0 0 242 12 0 0 0 0 0 0 0 0 0 0 0 0 0 0 0 0 0 0 0 0 0 0 0 0 0 0 0 0 0 0 0 0 0 0 0 0 0 0 0 0 0 0 0 0 0 0 0 0 0 0 0 0 0 0 0 0 0 0 0 0 0 0 0 0 0 0 0 0 0 0 0 0 0 0 0 0 0 0 0 0 0 0 0 0 0 0 0 0 0 0 0 0 0 0 0 0 0 0 0 0 0 0 0 40 214 0 36 218 0 32 218 4 28 218 8 24 222 8 16 222 16 12 226 16 8 226 20 4 230 20 0 230 24 0 0 0 0 0 0 239 226 252 0 0 0 0 0 0 0 0 0 0 0 0 0 0 0 0 0 0 0 0 0 0 0 0 
0 0 0 0 0 0 0 0 0 0 0 0 0 0 0 0 0 0 0 0 0 0 0 0 0 0 0 0 0 0 0 0 0 0 0 0 253 1 0 248 6 0 0 0 0 0 0 0 0 0 0 0 0 0 0 0 0 0 0 0 0 0 0 0 0 0 0 0 0 0 0 0 0 0 0 0 0 0 0 0 0 0 0 0 0 0 0 0 0 0 0 0 0 0 0 0 0 0 0 0 0 0 0 0 0 0 0 0 0 0 0 0 0 0 0 0 0 0 0 0 0 0 0 0 0 0 0 0 0 0 0 0 0 0 0 0 0 0 0 0 0 0 0 0 0 0 0 0 0 0 0 0 0 32 222 0 28 222 4 20 226 8 16 230 8 12 230 12 8 230 16 4 234 16 0 0 0 0 0 0 0 0 0 0 0 0 241 229 253 0 0 0 0 0 0 0 0 0 0 0 0 0 0 0 0 0 0 0 0 0 
0 0 0 0 0 0 0 0 0 0 0 0 0 0 0 0 0 0 0 0 0 0 0 0 0 0 0 0 0 0 0 0 0 0 0 0 0 0 0 0 0 0 0 0 0 0 0 0 0 0 0 0 0 0 0 0 0 0 0 0 0 0 0 0 0 0 0 0 0 0 0 0 0 0 0 0 0 0 0 0 0 0 0 0 0 0 0 0 0 0 0 0 0 0 0 0 0 0 0 0 0 0 0 0 0 0 0 0 0 0 0 0 0 0 0 0 0 0 0 0 0 0 0 0 0 0 0 0 0 0 0 0 0 0 0 0 0 0 0 0 0 0 0 0 0 0 0 0 0 0 0 0 0 28 226 0 24 230 0 20 230 4 16 234 4 12 234 8 8 234 12 0 238 16 0 0 0 0 0 0 0 0 0 0 0 0 0 0 0 243 232 253 0 0 0 0 0 0 0 0 0 0 0 0 0 0 0 0 0 0 
0 0 0 0 0 0 0 0 0 0 0 0 0 0 0 0 0 0 0 0 0 0 0 0 0 0 0 0 0 0 0 0 0 0 0 0 0 0 0 0 0 0 0 0 0 0 0 0 0 0 0 0 0 0 0 0 0 0 0 0 0 0 0 0 0 0 0 0 0 0 0 0 0 0 0 0 0 0 0 0 0 0 0 0 0 0 0 0 0 0 0 0 0 0 0 0 0 0 0 0 0 0 0 0 0 0 0 0 0 0 0 0 0 0 0 0 0 0 0 0 0 0 0 0 0 0 0 0 0 0 0 0 0 0 0 0 0 0 0 0 0 0 0 0 0 0 0 0 0 0 0 0 0 0 0 0 0 0 0 20 234 0 16 238 0 12 238 4 4 242 8 0 242 12 0 0 0 0 0 0 0 0 0 0 0 0 0 0 0 0 0 0 244 235 253 0 0 0 0 0 0 0 0 0 0 0 0 0 0 0 
0 0 0 0 0 0 0 0 0 0 0 0 0 0 0 0 0 0 0 0 0 0 0 0 0 0 0 0 0 0 0 0 0 0 0 0 0 0 0 0 0 0 0 0 0 0 0 0 0 0 0 0 0 0 0 0 0 0 0 0 0 0 0 0 0 0 0 0 0 0 0 0 0 0 0 0 0 0 0 0 0 0 0 0 0 0 0 0 0 0 0 0 0 0 0 0 0 0 0 0 0 0 0 0 0 0 0 0 0 0 0 0 0 0 0 0 0 0 0 0 0 0 0 0 0 0 0 0 0 0 0 0 0 0 0 0 0 0 0 0 0 0 0 0 0 0 0 0 0 0 0 0 0 0 0 0 0 0 0 0 0 0 12 242 0 8 246 0 4 246 4 0 246 8 0 0 0 0 0 0 0 0 0 0 0 0 0 0 0 0 0 0 0 0 0 246 239 253 0 0 0 0 0 0 0 0 0 0 0 0 
0 0 0 0 0 0 0 0 0 0 0 0 0 0 0 0 0 0 0 0 0 0 0 0 0 0 0 0 0 0 0 0 0 0 0 0 0 0 0 0 0 0 0 0 0 0 0 0 0 0 0 0 0 0 0 0 0 0 0 0 0 0 0 0 0 0 0 0 0 0 0 0 0 0 0 0 0 0 0 0 0 0 0 0 0 0 0 0 0 0 0 0 0 0 0 0 0 0 0 0 0 0 0 0 0 0 0 0 0 0 0 0 0 0 0 0 0 0 0 0 0 0 0 0 0 0 0 0 0 0 0 0 0 0 0 0 0 0 0 0 0 0 0 0 0 0 0 0 0 0 0 0 0 0 0 0 0 0 0 0 0 0 0 0 0 0 0 0 4 250 0 0 250 4 0 0 0 0 0 0 0 0 0 0 0 0 0 0 0 0 0 0 0 0 0 0 0 0 248 242 254 0 0 0 0 0 0 0 0 0 
0 0 0 0 0 0 0 0 0 0 0 0 0 0 0 0 0 0 0 0 0 0 0 0 0 0 0 0 0 0 0 0 0 0 0 0 0 0 0 0 0 0 0 0 0 0 0 0 0 0 0 0 0 0 0 0 0 0 0 0 0 0 0 0 0 0 0 0 0 0 0 0 0 0 0 0 0 0 0 0 0 0 0 0 0 0 0 0 0 0 0 0 0 0 0 0 0 0 0 0 0 0 0 0 0 0 0 0 0 0 0 0 0 0 0 0 0 0 0 0 0 0 0 0 0 0 0 0 0 0 0 0 0 0 0 0 0 0 0 0 0 0 0 0 0 0 0 0 0 0 0 0 0 0 0 0 0 0 0 0 0 0 0 0 0 0 0 0 0 0 0 0 255 0 0 0 0 0 0 0 0 0 0 0 0 0 0 0 0 0 0 0 0 0 0 0 0 0 0 0 0 249 245 254 0 0 0 0 0 0 
0 0 0 0 0 0 0 0 0 0 0 0 0 0 0 0 0 0 0 0 0 0 0 0 0 0 0 0 0 0 0 0 0 0 0 0 0 0 0 0 0 0 0 0 0 0 0 0 0 0 0 0 0 0 0 0 0 0 0 0 0 0 0 0 0 0 0 0 0 0 0 0 0 0 0 0 0 0 0 0 0 0 0 0 0 0 0 0 0 0 0 0 0 0 0 0 0 0 0 0 0 0 0 0 0 0 0 0 0 0 0 0 0 0 0 0 0 0 0 0 0 0 0 0 0 0 0 0 0 0 0 0 0 0 0 0 0 0 0 0 0 0 0 0 0 0 0 0 0 0 0 0 0 0 0 0 0 0 0 0 0 0 0 0 0 0 0 0 0 0 0 0 0 0 0 0 0 0 0 0 0 0 0 0 0 0 0 0 0 0 0 0 0 0 0 0 0 0 0 0 0 0 0 0 251 248 254 0 0 0 
0 0 0 0 0 0 0 0 0 0 0 0 0 0 0 0 0 0 0 0 0 0 0 0 0 0 0 0 0 0 0 0 0 0 0 0 0 0 0 0 0 0 0 0 0 0 0 0 0 0 0 0 0 0 0 0 0 0 0 0 0 0 0 0 0 0 0 0 0 0 0 0 0 0 0 0 0 0 0 0 0 0 0 0 0 0 0 0 0 0 0 0 0 0 0 0 0 0 0 0 0 0 0 0 0 0 0 0 0 0 0 0 0 0 0 0 0 0 0 0 0 0 0 0 0 0 0 0 0 0 0 0 0 0 0 0 0 0 0 0 0 0 0 0 0 0 0 0 0 0 0 0 0 0 0 0 0 0 0 0 0 0 0 0 0 0 0 0 0 0 0 0 0 0 0 0 0 0 0 0 0 0 0 0 0 0 0 0 0 0 0 0 0 0 0 0 0 0 0 0 0 0 0 0 0 0 0 253 251 254 
